<?xml version="1.0" standalone="no"?>
<!DOCTYPE svg PUBLIC "-//W3C//DTD SVG 20010904//EN"
 "http://www.w3.org/TR/2001/REC-SVG-20010904/DTD/svg10.dtd">
<svg version="1.0" xmlns="http://www.w3.org/2000/svg"
 width="512.000000pt" height="512.000000pt" viewBox="0 0 512.000000 512.000000"
 preserveAspectRatio="xMidYMid meet">
<metadata>
Created by potrace 1.14, written by Peter Selinger 2001-2017
</metadata>
<g transform="translate(0.000000,512.000000) scale(0.100000,-0.100000)"
fill="#000000" stroke="none">
<path d="M1611 5102 c-19 -9 -43 -29 -54 -44 -15 -20 -172 -610 -210 -788 -2
-8 -9 -33 -15 -55 -6 -22 -13 -51 -16 -65 -3 -14 -19 -81 -36 -150 -18 -69
-33 -132 -35 -140 -2 -8 -25 -98 -50 -200 -26 -102 -48 -192 -50 -200 -28
-109 -57 -228 -60 -240 -2 -8 -16 -62 -30 -120 -15 -58 -29 -112 -31 -120 -2
-8 -29 -116 -59 -240 -31 -124 -58 -232 -60 -240 -2 -8 -11 -44 -20 -80 -9
-36 -19 -72 -21 -80 -2 -8 -10 -40 -18 -70 -9 -30 -11 -57 -7 -60 7 -4 1127
-5 1164 -1 4 1 7 449 7 996 0 1099 -4 1037 63 1082 41 28 77 34 124 21 49 -13
90 -52 103 -97 6 -23 10 -345 10 -851 l0 -815 436 437 437 436 -203 811 c-196
786 -203 811 -235 844 -18 19 -48 37 -65 41 -18 3 -258 6 -534 6 -457 0 -504
-2 -535 -18z"/>
<path d="M4162 4308 c-127 -20 -261 -118 -325 -236 -38 -72 -68 -189 -62 -240
2 -15 6 -46 9 -69 3 -23 12 -58 21 -79 8 -20 15 -40 15 -45 0 -4 -317 -325
-705 -713 -388 -387 -705 -708 -705 -713 0 -4 92 -8 205 -7 l206 0 608 608
607 607 62 -20 c165 -56 345 -16 471 104 194 185 197 487 6 677 -105 104 -258
151 -413 126z"/>
<path d="M3342 2304 c-51 -52 -90 -94 -85 -95 4 0 58 -2 119 -2 l111 -2 -25
95 c-13 52 -24 96 -25 97 -1 1 -44 -41 -95 -93z"/>
<path d="M811 1889 c-57 -25 -77 -61 -106 -189 -1 -3 -6 -23 -13 -45 -6 -22
-13 -51 -16 -65 -3 -14 -19 -81 -36 -150 -18 -69 -34 -133 -36 -142 -6 -27
-10 -41 -49 -193 -19 -77 -37 -149 -39 -160 -3 -11 -23 -94 -46 -185 -23 -91
-43 -172 -45 -180 -2 -8 -8 -37 -14 -63 -19 -82 9 -145 79 -182 18 -9 76 -13
203 -13 98 0 181 -3 185 -6 3 -4 6 -54 7 -112 2 -113 10 -134 69 -178 38 -29
124 -29 163 0 54 40 67 77 67 191 0 64 4 103 11 103 89 4 1928 0 1932 -3 2 -3
6 -53 7 -111 1 -113 10 -136 69 -180 43 -32 124 -28 170 7 47 36 63 90 61 202
l-2 85 71 0 c276 2 315 5 344 26 36 26 72 97 68 132 -8 62 -326 1320 -342
1350 -9 18 -33 42 -52 55 l-36 22 -1318 1 c-1216 0 -1321 -1 -1356 -17z"/>
</g>
</svg>
